PathFileType	4	(X/Y/Z)	F:\MotionCapture\20160217\3\Generated_files\EMG_test02-Dynamic.trc
DataRate	CameraRate	NumFrames	NumMarkers	Units	OrigDataRate	OrigDataStartFrame	OrigNumFrames
120.00	120.00	       7	39	mm	120.00	510	       679
Frame#	Time	Top.Head			Front.Head			Rear.Head			R.Shoulder			R.Offset			R.Elbow			R.Wrist			L.Shoulder			L.Elbow			L.Wrist			R.ASIS			L.ASIS			V.Sacral			R.Thigh			R.Knee			R.Shank			R.Ankle			R.Heel			R.Toe			L.Thigh			L.Knee			L.Shank			L.Ankle			L.Heel			L.Toe			R1			R2			R3			R4			R5			R6			R7			L1			L2			L3			L4			L5			L6			L7			V_Mid_ASIS			V_Pelvis_Origin			V_R.Hip_JC			V_L.Hip_JC			V_R.Knee_JC			V_L.Knee_JC			V_R.Ankle_JC			V_L.Ankle_JC			V_Mid_Hip			V_Mid_Shoulder			V_R.Hand			V_L.Hand			V_R.Toe_Offset_Static			V_L.Toe_Offset_Static			V_R.Toe_Offset			V_L.Toe_Offset			
		X1	Y1	Z1	X2	Y2	Z2	X3	Y3	Z3	X4	Y4	Z4	X5	Y5	Z5	X6	Y6	Z6	X7	Y7	Z7	X8	Y8	Z8	X9	Y9	Z9	X10	Y10	Z10	X11	Y11	Z11	X12	Y12	Z12	X13	Y13	Z13	X14	Y14	Z14	X15	Y15	Z15	X16	Y16	Z16	X17	Y17	Z17	X18	Y18	Z18	X19	Y19	Z19	X20	Y20	Z20	X21	Y21	Z21	X22	Y22	Z22	X23	Y23	Z23	X24	Y24	Z24	X25	Y25	Z25	X26	Y26	Z26	X27	Y27	Z27	X28	Y28	Z28	X29	Y29	Z29	X30	Y30	Z30	X31	Y31	Z31	X32	Y32	Z32	X33	Y33	Z33	X34	Y34	Z34	X35	Y35	Z35	X36	Y36	Z36	X37	Y37	Z37	X38	Y38	Z38	X39	Y39	Z39	

510	4.242	-1623.10339	235.33569	1702.16614	-1730.04883	236.83635	1613.15063	-1512.37988	223.13708	1638.94336	-1547.57202	420.10803	1399.93774	-1423.47620	150.39778	1255.91956	-1560.22253	562.17719	1092.57202	-1788.09790	519.21954	967.42603	-1580.74670	13.91059	1398.11902	-1451.89014	-82.85360	1106.51172	-1437.78833	-107.17202	849.27832	-1591.36389	378.59570	917.99481	-1644.80444	93.62809	924.09265	-1398.75952	187.16852	925.41516	-1546.93652	309.27640	536.40912	-1439.72925	328.90543	449.10617	-1371.30273	235.39040	231.14575	-1260.83972	287.98471	88.63725	-1194.23669	217.46259	75.64568	-1400.33533	279.34720	40.50423	-1776.36145	124.91799	653.17737	-1756.60107	66.15591	479.37112	-1813.03235	139.57526	352.68835	-1829.68005	76.12424	77.69396	-1775.96069	135.53369	38.66892	-1963.46655	83.61380	100.19988	-1446.95166	261.52194	35.06031	-1407.66516	240.21301	43.98344	-1316.33154	198.64612	63.42102	-1242.94617	191.56345	66.69124	-1221.05359	264.27374	69.78948	-1291.07397	297.54944	42.80183	-1354.01550	318.61292	33.44551	-2005.64026	106.00153	115.40347	-1975.33240	120.19274	106.76289	-1890.45642	163.25531	86.79482	-1813.70618	165.91872	54.09722	-1802.01868	94.22570	46.13929	-1876.03503	63.01246	60.46817	-1932.43457	55.29106	83.65526																																																	-1480.48071	264.89172	12.75072	-1344.34082	316.21457	6.13507	-2121.37305	437.96786	312.41861	
511	4.250	-1636.27075	235.18086	1699.59326	-1742.96265	236.67944	1610.56458	-1522.59204	222.89890	1636.93066	-1560.13489	419.40863	1397.13818	-1436.42920	150.09358	1253.57556	-1574.67639	561.37378	1089.53125	-1804.06714	519.20258	968.49194	-1593.46802	13.38157	1396.29285	-1462.14551	-83.86990	1105.89648	-1442.86450	-106.83983	848.49286	-1604.74280	378.00443	916.04926	-1658.40088	93.81773	921.80109	-1411.86353	186.69240	923.36243	-1555.80725	310.72217	534.88580	-1446.91809	329.40643	448.21707	-1375.16077	236.35362	231.62589	-1263.76062	289.11670	89.45140	-1195.13965	218.30750	79.24185	-1400.31714	279.42493	40.29345	-1787.23083	126.88750	648.50024	-1769.51721	68.10545	477.74338	-1829.64404	141.83009	353.13779	-1856.52173	79.09753	78.85027	-1803.41992	138.22383	38.65521	-1989.84937	86.19952	105.99809	-1446.89600	261.60959	35.04100	-1405.85034	241.79884	42.43837	-1317.42236	198.99915	65.07159	-1244.28394	192.15312	69.49187	-1221.26379	265.54239	71.97657	-1291.54150	297.97980	43.85080	-1354.10242	318.72629	33.65453	-2030.89966	109.13252	121.86288	-2001.37537	121.96496	112.68539	-1917.33337	165.81735	90.30329	-1841.08496	168.46800	54.98702	-1829.96130	97.09644	46.35241	-1903.83679	65.97867	62.70250	-1959.26282	58.24595	87.68782																																																	-1345.32275	315.97559	7.79334	-2293.53125	-111.12730	339.85858	-2146.13574	443.93024	318.25043	
512	4.258	-1648.78711	235.28981	1697.04785	-1755.74622	236.55904	1607.97534	-1535.67920	222.54201	1634.80505	-1572.48193	419.13431	1394.30627	-1448.54346	149.50528	1251.19897	-1587.97705	560.09021	1086.53345	-1819.59387	519.52966	969.18933	-1606.02820	12.81488	1394.08960	-1472.33154	-84.06007	1105.20398	-1448.70544	-106.71504	848.01617	-1617.64844	378.23618	914.12317	-1671.72949	94.07199	919.42047	-1424.34998	185.40244	921.24561	-1564.90198	311.99271	532.59540	-1455.04309	330.84219	447.71854	-1379.24536	237.22322	231.94415	-1264.35571	289.34601	91.67397	-1196.73682	218.84503	83.58601	-1400.19580	279.15652	40.03216	-1798.19482	129.14597	644.47992	-1782.10864	69.88497	475.54575	-1846.18079	143.94923	353.83105	-1881.45410	81.71385	79.98705	-1829.04553	141.57552	38.37473	-2013.80115	88.75281	110.76952	-1446.85168	261.64316	35.03644	-1407.21216	241.14824	43.36966	-1317.87378	199.86046	66.36443	-1245.09814	192.72276	72.69866	-1223.46252	264.79105	74.22326	-1292.11719	298.76843	45.06900	-1353.76624	318.66916	32.71583	-2054.56860	110.31251	128.43442	-2025.46338	124.48341	118.36282	-1941.94983	168.53348	93.49080	-1867.14111	171.66637	56.12228	-1855.51538	100.69239	46.58201	-1929.08337	69.12053	64.33096	-1983.44238	61.24170	90.76754																																																	-2169.09180	449.44229	323.58899	
513	4.267	-1662.11926	235.06131	1694.89136	-1768.74780	236.25127	1605.60986	-1550.33923	222.67592	1632.24792	-1584.87878	418.56793	1391.88647	-1460.36694	148.44174	1248.77881	-1601.63940	558.54724	1083.71716	-1834.85229	519.77325	969.52124	-1618.73218	12.26350	1392.22998	-1482.52795	-84.85830	1104.51465	-1455.91663	-107.03989	847.68579	-1630.54236	377.81506	911.88660	-1685.45776	94.27225	917.23254	-1437.53320	184.53073	918.79901	-1574.48975	313.18713	530.91571	-1463.36279	331.55777	446.95120	-1383.26001	238.26024	232.27190	-1266.36694	290.17410	93.19856	-1197.74658	219.98990	87.49694	-1400.24829	279.23700	40.02565	-1808.96130	131.65160	641.08710	-1795.72583	71.80806	474.12119	-1861.68848	145.73036	354.01309	-1903.73840	84.93530	80.42316	-1852.79443	144.38045	38.35207	-2036.00928	91.29740	115.10009	-1446.78503	261.63992	34.96847	-1407.24072	241.36917	43.33991	-1318.88379	200.13898	68.69041	-1246.10608	193.64034	76.04803	-1224.99548	265.78693	77.85793	-1292.61230	299.62238	46.40758	-1354.21521	318.71411	32.99220	-2076.42041	113.53425	132.65486	-2047.81860	127.26072	122.60260	-1964.28772	171.08347	96.17995	-1889.94507	174.12166	56.93746	-1878.41382	103.76048	46.20442	-1952.13049	72.23182	66.35846	-2005.90686	63.72324	93.79453																																																	-1218.69434	300.15604	-6.82645	-2189.33423	454.41721	328.10794	
514	4.275	-1675.10181	234.74518	1692.83765	-1781.64490	235.94028	1603.12122	-1562.57544	222.48811	1630.52539	-1597.77502	417.72424	1389.38342	-1474.27087	147.99533	1246.36389	-1614.87390	557.17340	1081.23254	-1849.58521	519.80554	969.43121	-1631.37488	11.61851	1390.41492	-1493.85071	-85.92722	1104.01550	-1463.56262	-107.18179	847.11163	-1640.71741	379.64105	909.47449	-1699.23535	94.27294	914.93201	-1451.85266	182.83897	916.74646	-1584.11023	314.19675	528.69470	-1471.34900	332.22479	445.95554	-1387.65991	239.34926	232.78857	-1266.81628	289.52972	97.33942	-1199.53198	220.83609	91.96505	-1400.28918	279.28870	39.90633	-1820.66956	133.77020	638.94202	-1809.91687	73.17852	472.68713	-1876.76782	148.10982	353.67715	-1924.52405	87.12001	81.21111	-1874.24158	147.15634	37.23266	-2055.34448	94.01958	116.74010	-1445.85486	262.50946	33.44688	-1407.17102	241.24442	42.86610	-1320.02051	201.56894	70.60997	-1246.28760	194.62495	79.06579	-1226.24683	266.10788	81.58312	-1293.50146	299.98383	48.17459	-1354.70105	318.99698	33.52482	-2095.71924	116.13349	135.94179	-2067.55713	129.98865	125.47763	-1984.55359	173.99944	97.57839	-1910.76392	177.89595	57.08276	-1899.59949	106.47677	46.32629	-1972.83545	74.65950	67.82198	-2026.16797	66.78539	96.14870	
515	4.283	-1688.14624	234.56499	1690.66357	-1794.41577	235.95186	1601.09143	-1574.43701	221.51772	1628.68237	-1611.20837	416.82779	1387.31934	-1487.71948	146.72302	1244.16528	-1628.18982	555.23010	1078.68811	-1863.73242	520.09271	968.93750	-1644.20251	10.79486	1388.58606	-1504.53101	-86.80669	1103.15344	-1472.33142	-107.88203	846.58380	-1653.80139	379.42206	907.77643	-1713.17065	94.18258	913.08124	-1465.62781	181.93764	914.58575	-1594.46912	315.17395	526.83337	-1480.57532	333.13742	445.34161	-1392.76074	240.72519	233.20433	-1268.89087	290.64713	100.49860	-1201.15979	221.34285	97.06134	-1400.29419	279.36096	39.75217	-1832.96448	135.73679	638.15332	-1824.19934	75.12518	471.45935	-1891.59595	149.77435	353.22318	-1941.70410	89.85382	81.30005	-1891.53674	150.12138	36.76046	-2073.21777	96.69113	118.04372	-1446.79797	261.70969	34.79612	-1407.22656	241.51996	42.77903	-1321.51563	202.27710	73.22786	-1247.98877	195.35103	82.81923	-1228.16431	267.10056	85.53844	-1294.03674	300.67868	49.75331	-1354.93347	319.05206	33.57536	-2111.07739	119.28593	138.42216	-2084.68872	133.13521	126.31135	-2001.66052	176.96997	97.38901	-1928.89819	180.16608	56.73257	-1918.09302	109.48132	45.75238	-1990.80615	77.82037	67.65242	-2044.11670	69.87765	96.45266	
516	4.292	-1701.05505	234.10304	1688.70203	-1807.69031	235.04268	1599.07227	-1588.45190	220.26245	1626.88940	-1623.81824	416.08966	1385.34949	-1500.23877	146.11526	1241.84204	-1641.29175	553.89917	1076.32727	-1877.38220	520.14478	968.18054	-1656.88208	10.12056	1387.10107	-1516.11719	-87.88384	1102.58130	-1482.47351	-108.98858	846.35413	-1667.56519	378.74240	905.85834	-1727.17151	94.00661	911.34015	-1478.60925	180.72975	913.06360	-1605.45935	316.22372	525.05145	-1490.10620	334.78680	444.33084	-1398.42346	241.69304	234.21379	-1271.31531	291.16769	103.45562	-1203.81494	222.22672	102.71264	-1400.42249	279.57559	39.59710	-1846.82715	137.42282	638.51428	-1839.18481	76.28308	470.34387	-1905.82507	151.79227	351.74564	-1957.52429	92.73895	79.11593	-1906.70667	152.72409	35.03755	-2088.10303	100.10940	117.14725	-1446.74072	261.70569	34.75397	-1407.58545	241.75539	42.82241	-1323.26208	203.17867	75.63290	-1250.31140	196.30054	87.33496	-1229.70300	268.28781	89.97229	-1295.42371	301.85220	52.18189	-1355.21765	319.10626	33.72448	-2120.27026	144.79718	119.06454	-2107.52783	115.36726	142.92195	-2016.61377	180.02010	96.89051	-1943.62268	182.60065	54.77654	-1932.70471	112.39632	43.64091	-2006.23523	80.78477	66.41435	-2059.44482	73.08312	95.31228																																																	-2154.24292	183.52771	172.85298	
